<?xml version="1.0" encoding="UTF-8"?><svg id="Layer_2" xmlns="http://www.w3.org/2000/svg" viewBox="0 0 1828.87 684.24"><defs><style>.cls-1{font-size:52.01px;}.cls-1,.cls-2{fill:#13243d;}.cls-1,.cls-3{font-family:Montserrat-SemiBold, Montserrat;}.cls-4{letter-spacing:.08em;}.cls-5{letter-spacing:.09em;}.cls-3{fill:#fff;font-size:27.58px;}.cls-6{letter-spacing:.07em;}.cls-7{fill-rule:evenodd;}.cls-7,.cls-8{fill:#bc9950;}.cls-9{letter-spacing:.1em;}.cls-10{letter-spacing:.1em;}.cls-11{letter-spacing:.09em;}</style></defs><g id="Light_Theme_copy"><g><text class="cls-1" transform="translate(705.67 609.98) scale(1 .9)"><tspan class="cls-9" x="0" y="0">THE P</tspan><tspan class="cls-4" x="186.4" y="0">O</tspan><tspan class="cls-5" x="234.25" y="0">W</tspan><tspan class="cls-10" x="298.17" y="0">ERHOUSE OF REALE</tspan><tspan class="cls-11" x="932.22" y="0">S</tspan><tspan class="cls-6" x="969.61" y="0">TA</tspan><tspan class="cls-10" x="1046.64" y="0">TE</tspan></text><path class="cls-2" d="M417.79,538.44c-24.75,10.05-51.81,15.6-80.17,15.6-117.77,0-213.25-95.48-213.25-213.25S219.85,127.53,337.63,127.53s213.25,95.48,213.25,213.25c0,64.36-28.51,122.06-73.6,161.16l42.94,35.09c1.03-.96,2.05-1.92,3.06-2.89l40.58,1.04-1.25-48.62c20.74-31.94,34.46-65.94,40.02-105.32l77.17-50.16-78.57-39.2c-7.91-42.92-26.04-82.26-51.78-115.39l1.34-52.3-53.34,1.37c-31.24-23.23-67.71-39.82-107.32-47.69L345.54,0l-42.94,74.99c-55.07,7.19-100.34,27.15-139.64,62.5l-54.61,8.98,9.54,40.75c-21.56,30.8-36.82,66.34-43.88,104.74L0,340.17l71.86,35.85c5.98,45.53,23.38,87.45,49.24,122.81l-1.36,53.06,51.02-1.31c38.43,30.61,77.33,49.81,128.75,55.53l50.57,78.13,40.2-80.57c33.17-6.61,64.13-19.34,91.66-36.96l-64.15-28.28Zm183.11-239.02l53.97,27.77-70.71,4.05,16.74-31.82ZM339.85,22.32V93.15l-30.81-18.53,30.81-52.29ZM73.09,368.38l-53.97-27.77,70.71-4.05-16.74,31.82Zm279.07,289.3l-4.05-70.71,31.82,16.74-27.77,53.97Z"/><path class="cls-7" d="M602.67,617.36c-73.17-43.42-145.98-77.07-222.18-109.68-25.98-11.11-126.78-60.09-136.75-86.42-8.08-21.35,3.75-42.57,21.74-45.43,30.55-4.86,162.39-21.16,197.04-49.57-28.81-28.82-115.5-53.4-147.75-64.31-8.02-2.76-21.27-7.02-32.93-9.77,30.11,29.84,95.24,71.26,116.1,83.86-30.84-10.74-144.03-51.24-154.96-88.4-15.87-53.75,76.9-36.7,93.27-34.48,38.2,5.22,187.08,45.94,172.04,124.29-9.95,51.95-101.25,75.22-170.48,86.51,15.73,8.33,31.38,16.48,45.16,25.44,71.19,46.02,153.95,109.53,219.7,167.95h0ZM268.45,235.68c-.16-.58-.35-1.16-.63-1.75l-.1,.29c.25,.47,.49,.93,.73,1.46h0Z"/><g><path class="cls-8" d="M973.21,539.76l-76.91-122.6h-76.9l26.29-80.33h94c18.41,0,32.87-13.29,32.87-30.2v-64.02c0-16.91-14.46-30.2-32.87-30.2h-154.47v327.35h-86.77V132.08h243.21c64.42,0,117,47.71,118.32,106.9v71.27c-.66,42.88-28.92,80.33-69.67,97.24l83.48,132.27h-100.57Zm86.77-298.96v0Zm0,69.45v0Z"/><path class="cls-8" d="M1443.04,308.44v1.81c-1.31,59.19-53.9,106.9-118.32,106.9h-122.26l26.29-80.33h94c18.41,0,32.87-13.29,32.87-30.2v-64.02c0-16.91-14.46-30.2-32.87-30.2h-154.47v327.35h-86.77V132.08h243.21c64.42,0,117,47.71,118.32,106.9v69.46Zm0-67.64v0Zm0,69.45v0Z"/><path class="cls-8" d="M1808.69,240.79v190.25c0,59.79-53.24,108.71-118.32,108.71h-222.17V132.08h222.17c65.08,0,118.32,48.92,118.32,108.72Zm-87.42,1.81c0-16.91-14.46-30.2-32.87-30.2h-133.44v207.77l-42.72,39.86h176.16c18.41,0,32.87-13.89,32.87-30.2V242.6Z"/></g><text class="cls-3" transform="translate(116.64 357.67) rotate(-93.82) scale(1.48 1)"><tspan x="0" y="0">R</tspan></text><text class="cls-3" transform="translate(114.56 328.51) rotate(-85.66) scale(1.48 1)"><tspan x="0" y="0">U</tspan></text><text class="cls-3" transform="translate(116.84 297.04) rotate(-76.87) scale(1.48 1)"><tspan x="0" y="0">D</tspan></text><text class="cls-3" transform="translate(124.44 264.88) rotate(-68.38) scale(1.48 1)"><tspan x="0" y="0">R</tspan></text><text class="cls-3" transform="translate(135.15 237.7) rotate(-60.42) scale(1.48 1)"><tspan x="0" y="0">A</tspan></text><text class="cls-3" transform="translate(150.39 211.74) rotate(-54.85) scale(1.48 1)"><tspan x="0" y="0"> </tspan></text><text class="cls-3" transform="translate(156.26 202.61) rotate(-49.38) scale(1.48 1)"><tspan x="0" y="0">P</tspan></text><text class="cls-3" transform="translate(174.86 180.81) rotate(-41.55) scale(1.48 1)"><tspan x="0" y="0">R</tspan></text><text class="cls-3" transform="translate(196.58 161.29) rotate(-33.1) scale(1.48 1)"><tspan x="0" y="0">O</tspan></text><text class="cls-3" transform="translate(224.55 143.46) rotate(-26.03) scale(1.48 1)"><tspan x="0" y="0">J</tspan></text><text class="cls-3" transform="translate(243.36 134.07) rotate(-19.82) scale(1.48 1)"><tspan x="0" y="0">E</tspan></text><text class="cls-3" transform="translate(268.42 124.92) rotate(-12.7) scale(1.48 1)"><tspan x="0" y="0">C</tspan></text><text class="cls-3" transform="translate(296.54 118.68) rotate(-6.06) scale(1.48 1)"><tspan x="0" y="0">T</tspan></text><text class="cls-3" transform="translate(320.19 116.1) rotate(.05) scale(1.48 1)"><tspan x="0" y="0">S</tspan></text><text class="cls-3" transform="translate(345.49 116.39) rotate(4.57) scale(1.48 1)"><tspan x="0" y="0"> </tspan></text><text class="cls-3" transform="translate(356.39 116.88) rotate(9.47) scale(1.48 1)"><tspan x="0" y="0">&amp;</tspan></text><text class="cls-3" transform="translate(384.34 121.9) rotate(14.33) scale(1.48 1)"><tspan x="0" y="0"> </tspan></text><text class="cls-3" transform="translate(395.01 124.06) rotate(19.75) scale(1.48 1)"><tspan x="0" y="0">D</tspan></text><text class="cls-3" transform="translate(426.16 135.23) rotate(27.72) scale(1.48 1)"><tspan x="0" y="0">E</tspan></text><text class="cls-3" transform="translate(449.73 147.28) rotate(33.64) scale(1.48 1)"><tspan x="0" y="0">V</tspan></text><text class="cls-3" transform="translate(473.55 163.13) rotate(40.37) scale(1.48 1)"><tspan x="0" y="0">E</tspan></text><text class="cls-3" transform="translate(493.97 180.56) rotate(46.67) scale(1.48 1)"><tspan x="0" y="0">L</tspan></text><text class="cls-3" transform="translate(510.3 197.32) rotate(53.74) scale(1.48 1)"><tspan x="0" y="0">O</tspan></text><text class="cls-3" transform="translate(530.15 224.59) rotate(61.62) scale(1.48 1)"><tspan x="0" y="0">P</tspan></text><text class="cls-3" transform="translate(544.13 249.56) rotate(70.06) scale(1.48 1)"><tspan x="0" y="0">M</tspan></text><text class="cls-3" transform="translate(556.84 285.7) rotate(78.45) scale(1.48 1)"><tspan x="0" y="0">E</tspan></text><text class="cls-3" transform="translate(562.44 311.9) rotate(86.24) scale(1.48 1)"><tspan x="0" y="0">N</tspan></text><text class="cls-3" transform="translate(564.33 344.28) rotate(93.81) scale(1.48 1)"><tspan x="0" y="0">T</tspan></text><text class="cls-3" transform="translate(562.83 367.99) rotate(100.42) scale(1.48 1)"><tspan x="0" y="0">S</tspan></text><path class="cls-2" d="M157.77,346.22c0-103.85,84.19-188.04,188.04-188.04,30.04,0,58.43,7.06,83.62,19.59-29.47-19.18-64.64-30.33-102.43-30.33-103.85,0-188.04,84.19-188.04,188.04,0,73.81,42.53,137.68,104.42,168.46-51.54-33.54-85.62-91.64-85.62-157.71Z"/></g></g></svg>