<?xml version="1.0" encoding="UTF-8"?><svg id="Layer_2" xmlns="http://www.w3.org/2000/svg" viewBox="0 0 3803.33 802.67"><defs><style>.cls-1,.cls-2,.cls-3{fill:#13243d;}.cls-1,.cls-3,.cls-4,.cls-5{font-family:Montserrat-SemiBold, Montserrat;}.cls-1,.cls-5{font-size:52.01px;}.cls-6{letter-spacing:.1em;}.cls-7,.cls-4,.cls-5,.cls-8{fill:#fff;}.cls-9{letter-spacing:.08em;}.cls-10{letter-spacing:.1em;}.cls-3,.cls-4{font-size:27.79px;}.cls-11{letter-spacing:.08em;}.cls-12{letter-spacing:.09em;}.cls-13{fill-rule:evenodd;}.cls-13,.cls-14{fill:#bc9950;}.cls-15{letter-spacing:.08em;}.cls-16{letter-spacing:.07em;}.cls-17{letter-spacing:.1em;}.cls-18{letter-spacing:.07em;}.cls-19{letter-spacing:.1em;}.cls-8{stroke:#fff;stroke-miterlimit:10;stroke-width:6px;}</style></defs><g id="Layer_1-2"><g><text class="cls-1" transform="translate(2669.54 672.4) scale(1.01 .9)"><tspan class="cls-17" x="0" y="0">THE P</tspan><tspan class="cls-11" x="186.4" y="0">O</tspan><tspan class="cls-9" x="234.25" y="0">W</tspan><tspan class="cls-10" x="298.17" y="0">ERHOUSE OF REALE</tspan><tspan class="cls-12" x="932.22" y="0">S</tspan><tspan class="cls-18" x="969.61" y="0">TA</tspan><tspan class="cls-17" x="1046.64" y="0">TE</tspan></text><path class="cls-2" d="M2378.95,600.86c-24.98,10.05-52.3,15.6-80.92,15.6-118.89,0-215.26-95.48-215.26-213.25s96.38-213.25,215.26-213.25,215.26,95.48,215.26,213.25c0,64.36-28.78,122.06-74.29,161.16l43.35,35.09c1.04-.96,2.07-1.92,3.09-2.89l40.96,1.04-1.26-48.62c20.93-31.94,34.78-65.94,40.4-105.32l77.89-50.16-79.31-39.2c-7.99-42.92-26.29-82.26-52.27-115.39l1.35-52.3-53.85,1.37c-31.53-23.23-68.35-39.82-108.33-47.69l-45.01-77.87-43.34,74.99c-55.59,7.19-101.29,27.15-140.96,62.5l-55.13,8.98,9.63,40.75c-21.77,30.8-37.16,66.34-44.3,104.74l-74.7,48.2,72.54,35.85c6.03,45.53,23.6,87.45,49.7,122.81l-1.37,53.06,51.5-1.31c38.79,30.61,78.06,49.81,129.97,55.53l51.05,78.13,40.58-80.57c33.48-6.61,64.74-19.34,92.52-36.96l-64.75-28.28Zm184.84-239.02l54.48,27.77-71.38,4.05,16.9-31.82Zm-263.52-277.09v70.82l-31.1-18.53,31.1-52.29Zm-269.27,346.05l-54.48-27.77,71.38-4.05-16.9,31.82Zm281.7,289.3l-4.09-70.71,32.12,16.74-28.03,53.97Z"/><path class="cls-13" d="M2565.57,679.79c-73.86-43.42-147.36-77.07-224.28-109.68-26.22-11.11-127.97-60.09-138.04-86.42-8.16-21.35,3.79-42.57,21.95-45.43,30.84-4.86,163.92-21.16,198.9-49.57-29.09-28.82-116.59-53.4-149.14-64.31-8.1-2.76-21.47-7.02-33.24-9.77,30.39,29.84,96.13,71.26,117.2,83.86-31.13-10.74-145.39-51.24-156.42-88.4-16.02-53.75,77.63-36.7,94.14-34.48,38.56,5.22,188.84,45.94,173.66,124.29-10.04,51.95-102.21,75.22-172.08,86.51,15.88,8.33,31.67,16.48,45.58,25.44,71.86,46.02,155.4,109.53,221.77,167.95h0Zm-337.37-381.68c-.16-.58-.35-1.16-.64-1.75l-.1,.29c.25,.47,.49,.93,.74,1.46h0Z"/><g><path class="cls-14" d="M2939.61,602.18l-77.63-122.6h-77.63l26.54-80.33h94.88c18.58,0,33.18-13.29,33.18-30.2v-64.02c0-16.91-14.6-30.2-33.18-30.2h-155.93v327.35h-87.58V194.5h245.5c65.02,0,118.11,47.71,119.43,106.9v71.27c-.66,42.88-29.19,80.33-70.33,97.24l84.27,132.27h-101.52Zm87.58-298.96v0Zm0,69.45v0Z"/><path class="cls-14" d="M3413.87,370.86v1.81c-1.33,59.19-54.41,106.9-119.43,106.9h-123.41l26.54-80.33h94.88c18.58,0,33.18-13.29,33.18-30.2v-64.02c0-16.91-14.6-30.2-33.18-30.2h-155.93v327.35h-87.58V194.5h245.5c65.02,0,118.11,47.71,119.43,106.9v69.46Zm0-67.64v0Zm0,69.45v0Z"/><path class="cls-14" d="M3782.96,303.22v190.25c0,59.79-53.74,108.71-119.43,108.71h-224.27V194.5h224.27c65.69,0,119.43,48.92,119.43,108.72Zm-88.25,1.81c0-16.91-14.6-30.2-33.18-30.2h-134.69v207.77l-43.13,39.86h177.82c18.58,0,33.18-13.89,33.18-30.2v-187.23Z"/></g><text class="cls-4" transform="translate(2074.98 420.11) rotate(-93.86) scale(1.47 1) skewX(.14)"><tspan x="0" y="0">R</tspan></text><text class="cls-4" transform="translate(2072.87 391.04) rotate(-85.65) scale(1.47 1) skewX(.21)"><tspan x="0" y="0">U</tspan></text><text class="cls-4" transform="translate(2075.15 359.64) rotate(-76.8) scale(1.47 1) skewX(.26)"><tspan x="0" y="0">D</tspan></text><text class="cls-4" transform="translate(2082.79 327.5) rotate(-68.25) scale(1.47 1) skewX(.29)"><tspan x="0" y="0">R</tspan></text><text class="cls-4" transform="translate(2093.56 300.33) rotate(-60.24) scale(1.47 1) skewX(.29)"><tspan x="0" y="0">A</tspan></text><text class="cls-4" transform="translate(2108.92 274.36) rotate(-54.66) scale(1.47 1) skewX(.28)"><tspan x="0" y="0"> </tspan></text><text class="cls-4" transform="translate(2114.82 265.25) rotate(-49.18) scale(1.47 1) skewX(.26)"><tspan x="0" y="0">P</tspan></text><text class="cls-4" transform="translate(2133.52 243.48) rotate(-41.37) scale(1.47 1) skewX(.21)"><tspan x="0" y="0">R</tspan></text><text class="cls-4" transform="translate(2155.39 223.95) rotate(-32.95) scale(1.48 1) skewX(.15)"><tspan x="0" y="0">O</tspan></text><text class="cls-4" transform="translate(2183.51 206.11) rotate(-25.94) scale(1.48 1) skewX(.08)"><tspan x="0" y="0">J</tspan></text><text class="cls-4" transform="translate(2202.44 196.7) rotate(-19.79) scale(1.48 1) skewX(.02)"><tspan x="0" y="0">E</tspan></text><text class="cls-4" transform="translate(2227.64 187.52) rotate(-12.74) scale(1.48 1) skewX(-.06)"><tspan x="0" y="0">C</tspan></text><text class="cls-4" transform="translate(2255.9 181.23) rotate(-6.19) scale(1.48 1) skewX(-.12)"><tspan x="0" y="0">T</tspan></text><text class="cls-4" transform="translate(2279.67 178.59) rotate(-.16) scale(1.47 1) skewX(-.17)"><tspan x="0" y="0">S</tspan></text><text class="cls-4" transform="translate(2305.06 178.79) rotate(4.3) scale(1.47 1) skewX(-.21)"><tspan x="0" y="0"> </tspan></text><text class="cls-4" transform="translate(2316.01 179.22) rotate(9.12) scale(1.47 1) skewX(-.24)"><tspan x="0" y="0">&amp;</tspan></text><text class="cls-4" transform="translate(2344.09 184.09) rotate(13.92) scale(1.47 1) skewX(-.27)"><tspan x="0" y="0"> </tspan></text><text class="cls-4" transform="translate(2354.79 186.18) rotate(19.26) scale(1.47 1) skewX(-.28)"><tspan x="0" y="0">D</tspan></text><text class="cls-4" transform="translate(2385.96 197.42) rotate(25.72) scale(1.47 1) skewX(-.29)"><tspan x="0" y="0">E</tspan></text><text class="cls-4" transform="translate(2409.83 208.95) rotate(32.99) scale(1.47 1) skewX(-.29)"><tspan x="0" y="0">V</tspan></text><text class="cls-4" transform="translate(2433.85 224.54) rotate(39.66) scale(1.47 1) skewX(-.27)"><tspan x="0" y="0">E</tspan></text><text class="cls-4" transform="translate(2454.48 241.71) rotate(45.92) scale(1.47 1) skewX(-.23)"><tspan x="0" y="0">L</tspan></text><text class="cls-4" transform="translate(2470.98 258.21) rotate(52.95) scale(1.47 1) skewX(-.18)"><tspan x="0" y="0">O</tspan></text><text class="cls-4" transform="translate(2491.21 285.2) rotate(60.83) scale(1.47 1) skewX(-.11)"><tspan x="0" y="0">P</tspan></text><text class="cls-4" transform="translate(2505.49 309.91) rotate(69.27) scale(1.46 1) skewX(-.03)"><tspan x="0" y="0">M</tspan></text><text class="cls-4" transform="translate(2518.67 345.76) rotate(77.69) scale(1.46 1) skewX(.06)"><tspan x="0" y="0">E</tspan></text><text class="cls-4" transform="translate(2524.59 371.77) rotate(85.51) scale(1.47 1) skewX(.14)"><tspan x="0" y="0">N</tspan></text><text class="cls-4" transform="translate(2526.89 404.11) rotate(93.13) scale(1.47 1) skewX(.2)"><tspan x="0" y="0">T</tspan></text><text class="cls-4" transform="translate(2525.68 427.8) rotate(99.79) scale(1.47 1) skewX(.24)"><tspan x="0" y="0">S</tspan></text><path class="cls-2" d="M2116.47,408.64c0-103.85,84.98-188.04,189.82-188.04,30.33,0,58.98,7.06,84.41,19.59-29.75-19.18-65.25-30.33-103.39-30.33-104.83,0-189.82,84.19-189.82,188.04,0,73.81,42.93,137.68,105.41,168.46-52.02-33.54-86.42-91.64-86.42-157.71Z"/><rect class="cls-2" width="1927.34" height="802.67"/><text class="cls-5" transform="translate(754.7 672.4) scale(1.01 .9)"><tspan class="cls-6" x="0" y="0">THE P</tspan><tspan class="cls-11" x="186.4" y="0">O</tspan><tspan class="cls-15" x="234.25" y="0">W</tspan><tspan class="cls-19" x="298.17" y="0">ERHOUSE OF REALE</tspan><tspan class="cls-12" x="932.22" y="0">S</tspan><tspan class="cls-16" x="969.61" y="0">TA</tspan><tspan class="cls-17" x="1046.64" y="0">TE</tspan></text><path class="cls-8" d="M464.11,600.86c-24.98,10.05-52.3,15.6-80.92,15.6-118.89,0-215.26-95.48-215.26-213.25s96.38-213.25,215.26-213.25,215.26,95.48,215.26,213.25c0,64.36-28.78,122.06-74.29,161.16l43.35,35.09c1.04-.96,2.07-1.92,3.09-2.89l40.96,1.04-1.26-48.62c20.93-31.94,34.78-65.94,40.4-105.32l77.89-50.16-79.31-39.2c-7.99-42.92-26.29-82.26-52.27-115.39l1.35-52.3-53.85,1.37c-31.53-23.23-68.35-39.82-108.33-47.69l-45.01-77.87-43.34,74.99c-55.59,7.19-101.29,27.15-140.96,62.5l-55.13,8.98,9.63,40.75c-21.77,30.8-37.16,66.34-44.3,104.74l-74.7,48.2,72.54,35.85c6.03,45.53,23.6,87.45,49.7,122.81l-1.37,53.06,51.5-1.31c38.79,30.61,78.06,49.81,129.97,55.53l51.05,78.13,40.58-80.57c33.48-6.61,64.74-19.34,92.52-36.96l-64.75-28.28Zm184.84-239.02l54.48,27.77-71.38,4.05,16.9-31.82ZM385.43,84.75v70.82l-31.1-18.53,31.1-52.29ZM116.16,430.8l-54.48-27.77,71.38-4.05-16.9,31.82Zm281.7,289.3l-4.09-70.71,32.12,16.74-28.03,53.97Z"/><path class="cls-13" d="M650.73,679.79c-73.86-43.42-147.36-77.07-224.28-109.68-26.22-11.11-127.97-60.09-138.04-86.42-8.16-21.35,3.79-42.57,21.95-45.43,30.84-4.86,163.92-21.16,198.9-49.57-29.09-28.82-116.59-53.4-149.14-64.31-8.1-2.76-21.47-7.02-33.24-9.77,30.39,29.84,96.13,71.26,117.2,83.86-31.13-10.74-145.39-51.24-156.42-88.4-16.02-53.75,77.63-36.7,94.14-34.48,38.56,5.22,188.84,45.94,173.66,124.29-10.04,51.95-102.21,75.22-172.08,86.51,15.88,8.33,31.67,16.48,45.58,25.44,71.86,46.02,155.4,109.53,221.77,167.95h0ZM313.36,298.1c-.16-.58-.35-1.16-.64-1.75l-.1,.29c.25,.47,.49,.93,.74,1.46h0Z"/><g><path class="cls-14" d="M1024.77,602.18l-77.63-122.6h-77.63l26.54-80.33h94.88c18.58,0,33.18-13.29,33.18-30.2v-64.02c0-16.91-14.6-30.2-33.18-30.2h-155.93v327.35h-87.58V194.5h245.5c65.02,0,118.11,47.71,119.43,106.9v71.27c-.66,42.88-29.19,80.33-70.33,97.24l84.27,132.27h-101.52Zm87.58-298.96v0Zm0,69.45v0Z"/><path class="cls-14" d="M1499.03,370.86v1.81c-1.33,59.19-54.41,106.9-119.43,106.9h-123.41l26.54-80.33h94.88c18.58,0,33.18-13.29,33.18-30.2v-64.02c0-16.91-14.6-30.2-33.18-30.2h-155.93v327.35h-87.58V194.5h245.5c65.02,0,118.11,47.71,119.43,106.9v69.46Zm0-67.64v0Zm0,69.45v0Z"/><path class="cls-14" d="M1868.12,303.22v190.25c0,59.79-53.74,108.71-119.43,108.71h-224.27V194.5h224.27c65.69,0,119.43,48.92,119.43,108.72Zm-88.25,1.81c0-16.91-14.6-30.2-33.18-30.2h-134.69v207.77l-43.13,39.86h177.82c18.58,0,33.18-13.89,33.18-30.2v-187.23Z"/></g><text class="cls-3" transform="translate(160.14 420.11) rotate(-93.86) scale(1.47 1) skewX(.14)"><tspan x="0" y="0">R</tspan></text><text class="cls-3" transform="translate(158.03 391.04) rotate(-85.65) scale(1.47 1) skewX(.21)"><tspan x="0" y="0">U</tspan></text><text class="cls-3" transform="translate(160.31 359.64) rotate(-76.8) scale(1.47 1) skewX(.26)"><tspan x="0" y="0">D</tspan></text><text class="cls-3" transform="translate(167.95 327.5) rotate(-68.25) scale(1.47 1) skewX(.29)"><tspan x="0" y="0">R</tspan></text><text class="cls-3" transform="translate(178.72 300.33) rotate(-60.24) scale(1.47 1) skewX(.29)"><tspan x="0" y="0">A</tspan></text><text class="cls-3" transform="translate(194.07 274.38) rotate(-54.66) scale(1.47 1) skewX(.28)"><tspan x="0" y="0"> </tspan></text><text class="cls-3" transform="translate(199.98 265.25) rotate(-49.18) scale(1.47 1) skewX(.26)"><tspan x="0" y="0">P</tspan></text><text class="cls-3" transform="translate(218.68 243.48) rotate(-41.37) scale(1.47 1) skewX(.21)"><tspan x="0" y="0">R</tspan></text><text class="cls-3" transform="translate(240.55 223.95) rotate(-32.95) scale(1.48 1) skewX(.15)"><tspan x="0" y="0">O</tspan></text><text class="cls-3" transform="translate(268.69 206.1) rotate(-25.94) scale(1.48 1) skewX(.08)"><tspan x="0" y="0">J</tspan></text><text class="cls-3" transform="translate(287.6 196.7) rotate(-19.78) scale(1.48 1) skewX(.02)"><tspan x="0" y="0">E</tspan></text><text class="cls-3" transform="translate(312.8 187.52) rotate(-12.74) scale(1.48 1) skewX(-.06)"><tspan x="0" y="0">C</tspan></text><text class="cls-3" transform="translate(341.06 181.23) rotate(-6.18) scale(1.48 1) skewX(-.12)"><tspan x="0" y="0">T</tspan></text><text class="cls-3" transform="translate(364.83 178.59) rotate(-.16) scale(1.47 1) skewX(-.17)"><tspan x="0" y="0">S</tspan></text><text class="cls-3" transform="translate(390.22 178.79) rotate(4.3) scale(1.47 1) skewX(-.21)"><tspan x="0" y="0"> </tspan></text><text class="cls-3" transform="translate(401.15 179.22) rotate(9.12) scale(1.47 1) skewX(-.24)"><tspan x="0" y="0">&amp;</tspan></text><text class="cls-3" transform="translate(429.25 184.09) rotate(13.92) scale(1.47 1) skewX(-.27)"><tspan x="0" y="0"> </tspan></text><text class="cls-3" transform="translate(439.95 186.18) rotate(19.26) scale(1.47 1) skewX(-.28)"><tspan x="0" y="0">D</tspan></text><text class="cls-3" transform="translate(471.13 197.42) rotate(25.72) scale(1.47 1) skewX(-.29)"><tspan x="0" y="0">E</tspan></text><text class="cls-3" transform="translate(494.99 208.95) rotate(32.99) scale(1.47 1) skewX(-.29)"><tspan x="0" y="0">V</tspan></text><text class="cls-3" transform="translate(519.01 224.54) rotate(39.66) scale(1.47 1) skewX(-.27)"><tspan x="0" y="0">E</tspan></text><text class="cls-3" transform="translate(539.64 241.71) rotate(45.92) scale(1.47 1) skewX(-.23)"><tspan x="0" y="0">L</tspan></text><text class="cls-3" transform="translate(556.15 258.22) rotate(52.95) scale(1.47 1) skewX(-.18)"><tspan x="0" y="0">O</tspan></text><text class="cls-3" transform="translate(576.36 285.18) rotate(60.82) scale(1.47 1) skewX(-.11)"><tspan x="0" y="0">P</tspan></text><text class="cls-3" transform="translate(590.65 309.91) rotate(69.27) scale(1.46 1) skewX(-.03)"><tspan x="0" y="0">M</tspan></text><text class="cls-3" transform="translate(603.83 345.76) rotate(77.69) scale(1.46 1) skewX(.06)"><tspan x="0" y="0">E</tspan></text><text class="cls-3" transform="translate(609.75 371.77) rotate(85.51) scale(1.47 1) skewX(.14)"><tspan x="0" y="0">N</tspan></text><text class="cls-3" transform="translate(612.05 404.08) rotate(93.13) scale(1.47 1) skewX(.2)"><tspan x="0" y="0">T</tspan></text><text class="cls-3" transform="translate(610.84 427.78) rotate(99.78) scale(1.47 1) skewX(.24)"><tspan x="0" y="0">S</tspan></text><path class="cls-7" d="M207.69,409.64c0-103.85,84.98-188.04,189.82-188.04,30.33,0,58.98,7.06,84.41,19.59-29.75-19.18-65.25-30.33-103.39-30.33-104.83,0-189.82,84.19-189.82,188.04,0,73.81,42.93,137.68,105.41,168.46-52.02-33.54-86.42-91.64-86.42-157.71Z"/></g></g></svg>